<svg width="32" height="32" viewBox="0 0 32 32" fill="none" xmlns="http://www.w3.org/2000/svg">
<rect width="32" height="32" fill="#E5E5E5"/>
<rect width="1440" height="1024" transform="translate(-260 -574)" fill="white"/>
<rect x="-260" y="-574" width="1440" height="1024" fill="#F3F4F5"/>
<rect x="-91" y="-473" width="1110" height="824" rx="20" fill="white"/>
<g filter="url(#filter0_d)">
<rect x="-25" y="-22" width="410" height="82" rx="10" fill="white"/>
<rect x="-25" y="-22" width="410" height="82" rx="10" stroke="#E9E9EC"/>
</g>
<rect width="32" height="32" rx="6" fill="#88D5EE"/>
<rect width="32" height="32" rx="6" fill="#FFE1BD"/>
<path fill-rule="evenodd" clip-rule="evenodd" d="M9 9H23C24.654 9 26 10.346 26 12V20C26 21.654 24.654 23 23 23H9C7.346 23 6 21.654 6 20V12C6 10.346 7.346 9 9 9ZM8 13H24V12C24 11.449 23.552 11 23 11H9C8.448 11 8 11.449 8 12V13ZM19 19H21C21.55 19 22 18.55 22 18C22 17.45 21.55 17 21 17H19C18.45 17 18 17.45 18 18C18 18.55 18.45 19 19 19ZM15 19H11C10.45 19 10 18.55 10 18C10 17.45 10.45 17 11 17H15C15.55 17 16 17.45 16 18C16 18.55 15.55 19 15 19Z" fill="#B6701C"/>
<defs>
<filter id="filter0_d" x="-48.5" y="-35.5" width="457" height="129" filterUnits="userSpaceOnUse" color-interpolation-filters="sRGB">
<feFlood flood-opacity="0" result="BackgroundImageFix"/>
<feColorMatrix in="SourceAlpha" type="matrix" values="0 0 0 0 0 0 0 0 0 0 0 0 0 0 0 0 0 0 127 0"/>
<feOffset dy="10"/>
<feGaussianBlur stdDeviation="11.5"/>
<feColorMatrix type="matrix" values="0 0 0 0 0.571842 0 0 0 0 0.571842 0 0 0 0 0.82467 0 0 0 0.1 0"/>
<feBlend mode="normal" in2="BackgroundImageFix" result="effect1_dropShadow"/>
<feBlend mode="normal" in="SourceGraphic" in2="effect1_dropShadow" result="shape"/>
</filter>
</defs>
</svg>
