<svg width="192" height="192" viewBox="0 0 192 192" fill="none" xmlns="http://www.w3.org/2000/svg">
<path d="M96 189C147.362 189 189 147.362 189 96C189 44.6375 147.362 3 96 3C44.6375 3 3 44.6375 3 96C3 147.362 44.6375 189 96 189Z" fill="#EB5757" stroke="white" stroke-width="6"/>
<mask id="mask0" mask-type="alpha" maskUnits="userSpaceOnUse" x="6" y="6" width="180" height="180">
<path d="M183 96C183 144.049 144.049 183 96 183C47.9512 183 9 144.049 9 96C9 47.9512 47.9512 9 96 9C144.049 9 183 47.9512 183 96Z" fill="white" stroke="white" stroke-width="6"/>
</mask>
<g mask="url(#mask0)">
<g filter="url(#filter0_d)">
<rect x="22.9811" y="58.6416" width="149.434" height="149.434" rx="16" fill="white"/>
<rect x="22.4811" y="58.1416" width="150.434" height="150.434" rx="16.5" stroke="white"/>
</g>
<mask id="mask1" mask-type="alpha" maskUnits="userSpaceOnUse" x="22" y="58" width="151" height="151">
<path d="M156.415 58.6416H38.9811C30.1446 58.6416 22.9811 65.805 22.9811 74.6416V192.076C22.9811 200.912 30.1445 208.076 38.9811 208.076H156.415C165.252 208.076 172.415 200.912 172.415 192.076V74.6416C172.415 65.805 165.252 58.6416 156.415 58.6416Z" fill="#325CD8"/>
</mask>
<g mask="url(#mask1)">
<mask id="mask2" mask-type="alpha" maskUnits="userSpaceOnUse" x="22" y="58" width="151" height="151">
<path d="M172.415 58.6416H22.9811V208.076H172.415V58.6416Z" fill="white"/>
</mask>
<g mask="url(#mask2)">
<path d="M172.415 58.6416H22.9811V208.076H172.415V58.6416Z" fill="#FFE0E0"/>
<path opacity="0.21" d="M47.2641 118.415C72.7969 118.415 93.4953 97.717 93.4953 72.1843C93.4953 46.6515 72.7969 25.9531 47.2641 25.9531C21.7314 25.9531 1.03299 46.6515 1.03299 72.1843C1.03299 97.717 21.7314 118.415 47.2641 118.415Z" stroke="white" stroke-width="9"/>
<path opacity="0.21" d="M165.41 258.51C198.938 258.51 226.118 231.33 226.118 197.802C226.118 164.274 198.938 137.095 165.41 137.095C131.883 137.095 104.703 164.274 104.703 197.802C104.703 231.33 131.883 258.51 165.41 258.51Z" stroke="white" stroke-width="9"/>
<mask id="mask3" mask-type="alpha" maskUnits="userSpaceOnUse" x="77" y="136" width="41" height="66">
<path d="M83.0944 136.938H112.302L117.778 201.849H77.618L83.0944 136.938Z" fill="white"/>
</mask>
<g mask="url(#mask3)">
<path d="M83.0944 136.938H112.302L117.778 201.849H77.618L83.0944 136.938Z" fill="#A6633E"/>
<path opacity="0.6" fill-rule="evenodd" clip-rule="evenodd" d="M81.9262 143.122C84.0943 149.351 89.2717 153.159 97.4584 154.546C105.645 155.933 112.083 155.933 116.774 154.546L114.201 138.339L80.7454 138.495L81.9262 143.122Z" fill="#773816"/>
</g>
<mask id="mask4" mask-type="alpha" maskUnits="userSpaceOnUse" x="27" y="155" width="141" height="54">
<path d="M49.5184 168.57L81.6543 155.588C87.4107 170.226 92.7586 177.545 97.6981 177.545C102.638 177.545 108.008 170.226 113.81 155.588L145.889 168.567C153.771 171.756 159.698 178.461 161.895 186.675L167.745 208.543H27.6509L33.4988 186.684C35.6974 178.465 41.6301 171.757 49.5184 168.57Z" fill="white"/>
</mask>
<g mask="url(#mask4)">
<path d="M49.5184 168.57L81.6543 155.588C87.4107 170.226 92.7586 177.545 97.6981 177.545C102.638 177.545 108.008 170.226 113.81 155.588L145.889 168.567C153.771 171.756 159.698 178.461 161.895 186.675L167.745 208.543H27.6509L33.4988 186.684C35.6974 178.465 41.6301 171.757 49.5184 168.57Z" fill="url(#paint0_linear)"/>
<path d="M98.6321 173.987H96.7641V209.011H98.6321V173.987Z" fill="#BECAE4"/>
</g>
<path fill-rule="evenodd" clip-rule="evenodd" d="M72.3309 158.95L81.5081 155.171C86.9149 169.444 92.1807 176.486 96.3003 177.369C93.9939 186.788 91.8765 191.839 89.9481 192.522C88.6145 192.995 80.4606 187.706 75.7668 176.095C74.6374 173.301 73.2145 168.121 71.4981 160.555C71.3469 159.889 71.6988 159.21 72.3309 158.95Z" fill="#13253E"/>
<path fill-rule="evenodd" clip-rule="evenodd" d="M123.022 158.95L113.845 155.171C108.438 169.444 103.172 176.486 99.0523 177.369C101.359 186.788 103.476 191.839 105.405 192.522C106.738 192.995 114.892 187.706 119.586 176.095C120.715 173.301 122.138 168.121 123.855 160.555C124.006 159.889 123.654 159.21 123.022 158.95Z" fill="#13253E"/>
<path fill-rule="evenodd" clip-rule="evenodd" d="M75.283 85.2598H122.915C122.855 106.403 122.544 120.829 121.981 128.538C121.129 140.205 111.415 149.236 99.7169 149.236H98.4811C86.7827 149.236 77.0686 140.205 76.2169 128.538C75.223 114.921 74.9117 100.495 75.283 85.2598Z" fill="#A6633E"/>
<path d="M86.4906 126.555C88.8117 126.555 90.6934 125.615 90.6934 124.454C90.6934 123.293 88.8117 122.353 86.4906 122.353C84.1694 122.353 82.2878 123.293 82.2878 124.454C82.2878 125.615 84.1694 126.555 86.4906 126.555Z" fill="#B46B43"/>
<path d="M112.175 126.555C114.496 126.555 116.377 125.615 116.377 124.454C116.377 123.293 114.496 122.353 112.175 122.353C109.853 122.353 107.972 123.293 107.972 124.454C107.972 125.615 109.853 126.555 112.175 126.555Z" fill="#B46B43"/>
<path d="M88.592 117.014C89.7526 117.014 90.6934 116.074 90.6934 114.913C90.6934 113.752 89.7526 112.812 88.592 112.812C87.4314 112.812 86.4906 113.752 86.4906 114.913C86.4906 116.074 87.4314 117.014 88.592 117.014Z" fill="#05101F"/>
<path d="M110.073 117.014C111.234 117.014 112.175 116.074 112.175 114.913C112.175 113.752 111.234 112.812 110.073 112.812C108.913 112.812 107.972 113.752 107.972 114.913C107.972 116.074 108.913 117.014 110.073 117.014Z" fill="#05101F"/>
<path opacity="0.34" fill-rule="evenodd" clip-rule="evenodd" d="M80.0443 89.1344C81.6122 95.7544 85.9739 98.6034 93.1294 97.6816C103.863 96.2988 110.073 83.996 120.164 94.6444C115.924 85.355 109.083 81.2664 99.6432 82.3786C90.2029 83.4907 83.6699 85.7427 80.0443 89.1344Z" fill="#A3A4A9" fill-opacity="0.38"/>
<path fill-rule="evenodd" clip-rule="evenodd" d="M75.283 117.014C65.5293 95.3584 66.407 82.8909 77.9161 79.6118C78.3779 71.0088 82.3286 66.5853 89.7681 66.3411C100.927 65.9749 102.744 69.6257 112.302 70.9066C121.86 72.1876 129.147 81.4288 129.147 92.2785C129.147 99.5117 126.155 107.757 122 117.014C122.669 100.232 120.407 90.9387 113.386 89.1343C102.854 86.4276 99.7933 92.9617 92.9484 92.9617C88.3851 92.9617 84.0837 91.5695 80.0442 88.785C79.8852 92.4785 79.4713 96.3076 78.8026 100.272C78.1339 104.237 76.9607 109.818 75.283 117.014Z" fill="#05101F"/>
<path d="M83.3271 107.291C86.151 105.375 89.1264 105.033 92.2534 106.265" stroke="#05101F" stroke-width="0.9" stroke-linecap="round"/>
<path d="M115.602 107.291C112.779 105.375 109.803 105.033 106.676 106.265" stroke="#05101F" stroke-width="0.9" stroke-linecap="round"/>
<path fill-rule="evenodd" clip-rule="evenodd" d="M122.135 116.294C124.304 110.788 127.039 109.705 130.341 113.046C135.294 118.057 129.532 131.984 121.438 127.301L122.135 116.294Z" fill="#AF6033"/>
<path d="M124.849 122.478C125.46 118.521 126.569 116.187 128.177 115.476" stroke="#813F1C" stroke-width="0.675" stroke-linecap="round"/>
<path fill-rule="evenodd" clip-rule="evenodd" d="M75.9115 116.294C73.7426 110.788 71.0072 109.705 67.7054 113.046C62.7528 118.057 68.5142 131.984 76.6082 127.301L75.9115 116.294Z" fill="#AF6033"/>
<path d="M73.1972 122.478C72.5871 118.521 71.478 116.187 69.8701 115.476" stroke="#813F1C" stroke-width="0.675" stroke-linecap="round"/>
<path d="M99.0529 107.204C99.0529 108.448 99.0529 110.064 99.0529 112.05C99.0529 115.03 105.276 124.489 101.241 125.668C98.5507 126.453 97.2119 126.82 97.2244 126.768" stroke="#5F361F" stroke-width="0.9" stroke-linecap="round"/>
<path d="M93.3093 135.277C98.065 137.493 102.209 137.493 105.742 135.277" stroke="#5F361F" stroke-width="0.675" stroke-linecap="round"/>
</g>
</g>
</g>
<defs>
<filter id="filter0_d" x="7.98111" y="55.6416" width="179.434" height="179.434" filterUnits="userSpaceOnUse" color-interpolation-filters="sRGB">
<feFlood flood-opacity="0" result="BackgroundImageFix"/>
<feColorMatrix in="SourceAlpha" type="matrix" values="0 0 0 0 0 0 0 0 0 0 0 0 0 0 0 0 0 0 127 0"/>
<feMorphology radius="6" operator="erode" in="SourceAlpha" result="effect1_dropShadow"/>
<feOffset dy="12"/>
<feGaussianBlur stdDeviation="10"/>
<feColorMatrix type="matrix" values="0 0 0 0 0 0 0 0 0 0.184314 0 0 0 0 0.439216 0 0 0 0.24 0"/>
<feBlend mode="normal" in2="BackgroundImageFix" result="effect1_dropShadow"/>
<feBlend mode="normal" in="SourceGraphic" in2="effect1_dropShadow" result="shape"/>
</filter>
<linearGradient id="paint0_linear" x1="97.6981" y1="155.588" x2="97.6981" y2="208.543" gradientUnits="userSpaceOnUse">
<stop stop-color="#F4F5F7"/>
<stop offset="1" stop-color="#E5E8ED"/>
</linearGradient>
</defs>
</svg>
